ffmpeg version 3.4.8-0ubuntu0.2 Copyright (c) 2000-2020 the FFmpeg developers
  built with gcc 7 (Ubuntu 7.5.0-3ubuntu1~18.04)
  configuration: --prefix=/usr --extra-version=0ubuntu0.2 --toolchain=hardened --libdir=/usr/lib/x86_64-linux-gnu --incdir=/usr/include/x86_64-linux-gnu --enable-gpl --disable-stripping --enable-avresample --enable-avisynth --enable-gnutls --enable-ladspa --enable-libass --enable-libbluray --enable-libbs2b --enable-libcaca --enable-libcdio --enable-libflite --enable-libfontconfig --enable-libfreetype --enable-libfribidi --enable-libgme --enable-libgsm --enable-libmp3lame --enable-libmysofa --enable-libopenjpeg --enable-libopenmpt --enable-libopus --enable-libpulse --enable-librubberband --enable-librsvg --enable-libshine --enable-libsnappy --enable-libsoxr --enable-libspeex --enable-libssh --enable-libtheora --enable-libtwolame --enable-libvorbis --enable-libvpx --enable-libwavpack --enable-libwebp --enable-libx265 --enable-libxml2 --enable-libxvid --enable-libzmq --enable-libzvbi --enable-omx --enable-openal --enable-opengl --enable-sdl2 --enable-libdc1394 --enable-libdrm --enable-libiec61883 --enable-chromaprint --enable-frei0r --enable-libopencv --enable-libx264 --enable-shared
  libavutil      55. 78.100 / 55. 78.100
  libavcodec     57.107.100 / 57.107.100
  libavformat    57. 83.100 / 57. 83.100
  libavdevice    57. 10.100 / 57. 10.100
  libavfilter     6.107.100 /  6.107.100
  libavresample   3.  7.  0 /  3.  7.  0
  libswscale      4.  8.100 /  4.  8.100
  libswresample   2.  9.100 /  2.  9.100
  libpostproc    54.  7.100 / 54.  7.100
[rawvideo @ 0x555b4ff02a20] Estimating duration from bitrate, this may be inaccurate
Input #0, rawvideo, from '../../SVC-Encoder-20220109T061506Z-001/SVC-Encoder/Dataset/RollerCoaster/ERP_8x8/tile_yuv/Tile_59_480x240.yuv':
  Duration: 00:00:10.00, start: 0.000000, bitrate: 41472 kb/s
    Stream #0:0: Video: rawvideo (I420 / 0x30323449), yuv420p, 480x240, 41472 kb/s, 30 tbr, 30 tbn, 30 tbc
Stream mapping:
  Stream #0:0 -> #0:0 (rawvideo (native) -> h264 (libx264))
Press [q] to stop, [?] for help
[libx264 @ 0x555b4ff0fc60] using cpu capabilities: MMX2 SSE2Fast LZCNT SSSE3 SSE4.2 AVX
[libx264 @ 0x555b4ff0fc60] profile High, level 2.1
Output #0, rawvideo, to 'RollerCoaster_Tile_59_480x240_x264_QP_40.h264':
  Metadata:
    encoder         : Lavf57.83.100
    Stream #0:0: Video: h264 (libx264), yuv420p, 480x240, q=-1--1, 30 fps, 30 tbn, 30 tbc
    Metadata:
      encoder         : Lavc57.107.100 libx264
    Side data:
      cpb: bitrate max/min/avg: 0/0/0 buffer size: 0 vbv_delay: -1
frame=  293 fps=0.0 q=46.0 PSNR=Y:nan U:nan V:nan *:nan size=      26kB time=00:00:08.33 bitrate=  25.1kbits/s speed=16.2x    frame=  300 fps=0.0 q=46.0 LPSNR=Y:inf U:inf V:inf *:inf size=      30kB time=00:00:09.93 bitrate=  24.5kbits/s speed=17.6x    
video:30kB audio:0kB subtitle:0kB other streams:0kB global headers:0kB muxing overhead: 0.000000%
[libx264 @ 0x555b4ff0fc60] frame I:2     Avg QP:37.60  size:  2245  PSNR Mean Y:37.39 U:46.21 V:38.27 Avg:38.23 Global:38.22
[libx264 @ 0x555b4ff0fc60] frame P:77    Avg QP:39.74  size:   149  PSNR Mean Y:37.19 U:45.17 V:39.62 Avg:38.21 Global:38.20
[libx264 @ 0x555b4ff0fc60] frame B:221   Avg QP:45.48  size:    65  PSNR Mean Y:36.78 U:45.22 V:39.63 Avg:37.87 Global:37.85
[libx264 @ 0x555b4ff0fc60] consecutive B-frames:  0.7%  2.7%  2.0% 94.7%
[libx264 @ 0x555b4ff0fc60] mb I  I16..4: 14.8% 67.3% 17.9%
[libx264 @ 0x555b4ff0fc60] mb P  I16..4:  0.2%  0.2%  0.0%  P16..4: 19.1%  0.6%  0.0%  0.0%  0.0%    skip:79.9%
[libx264 @ 0x555b4ff0fc60] mb B  I16..4:  0.0%  0.0%  0.0%  B16..8: 11.9%  0.0%  0.0%  direct: 0.0%  skip:88.0%  L0:47.7% L1:52.3% BI: 0.0%
[libx264 @ 0x555b4ff0fc60] 8x8 transform intra:64.9% inter:97.3%
[libx264 @ 0x555b4ff0fc60] coded y,uvDC,uvAC intra: 19.0% 33.4% 18.0% inter: 0.1% 0.3% 0.0%
[libx264 @ 0x555b4ff0fc60] i16 v,h,dc,p: 16% 75%  8%  1%
[libx264 @ 0x555b4ff0fc60] i8 v,h,dc,ddl,ddr,vr,hd,vl,hu:  8% 27% 58%  1%  1%  0%  2%  0%  4%
[libx264 @ 0x555b4ff0fc60] i4 v,h,dc,ddl,ddr,vr,hd,vl,hu:  5% 60% 22%  1%  1%  0%  2%  0%  9%
[libx264 @ 0x555b4ff0fc60] i8c dc,h,v,p: 58% 36%  2%  4%
[libx264 @ 0x555b4ff0fc60] Weighted P-Frames: Y:1.3% UV:0.0%
[libx264 @ 0x555b4ff0fc60] ref P L0: 49.1% 14.4% 26.3% 10.0%  0.1%
[libx264 @ 0x555b4ff0fc60] ref B L0: 59.6% 32.3%  8.1%
[libx264 @ 0x555b4ff0fc60] ref B L1: 74.8% 25.2%
[libx264 @ 0x555b4ff0fc60] PSNR Mean Y:36.887 U:45.211 V:39.616 Avg:37.957 Global:37.940 kb/s:24.29
